<?xml version="1.0" encoding="UTF-8"?>
<svg width="159px" height="49px" viewBox="0 0 159 49" version="1.1" xmlns="http://www.w3.org/2000/svg" xmlns:xlink="http://www.w3.org/1999/xlink">
    <!-- Generator: Sketch 46.2 (44496) - http://www.bohemiancoding.com/sketch -->
    <title>logo_black copy 2</title>
    <desc>Created with Sketch.</desc>
    <defs></defs>
    <g id="Page-1" stroke="none" stroke-width="1" fill="none" fill-rule="evenodd">
        <g id="UST_L3" transform="translate(15.000000, 0.000000)" fill-rule="nonzero">
            <g id="Group" transform="translate(24.000000, 1.000000)" fill="#003366">
                <polygon id="Shape" points="2.86134969 7.5 1.97259714 7.5 1.97259714 1.30985915 0.260122699 1.30985915 0.260122699 0.528169014 4.55214724 0.528169014 4.55214724 1.30985915 2.8396728 1.30985915"></polygon>
                <polygon id="Shape" points="9.58118609 3.31690141 9.58118609 0.528169014 10.4699387 0.528169014 10.4699387 7.5 9.58118609 7.5 9.58118609 4.16197183 6.17791411 4.16197183 6.17791411 7.5 5.28916155 7.5 5.28916155 0.528169014 6.17791411 0.528169014 6.17791411 3.33802817"></polygon>
                <polygon id="Shape" points="11.8572597 0.528169014 15.6940695 0.528169014 15.6940695 1.30985915 12.7243354 1.30985915 12.7243354 3.25352113 15.607362 3.25352113 15.607362 4.03521127 12.7460123 4.03521127 12.7460123 6.67605634 15.7157464 6.67605634 15.7157464 7.45774648 11.8789366 7.45774648 11.8789366 0.528169014"></polygon>
                <polygon id="Shape" points="23.9529652 3.31690141 23.9529652 0.528169014 24.8417178 0.528169014 24.8417178 7.5 23.9529652 7.5 23.9529652 4.16197183 20.5496933 4.16197183 20.5496933 7.5 19.6609407 7.5 19.6609407 0.528169014 20.5496933 0.528169014 20.5496933 3.33802817"></polygon>
                <path d="M33.2306748,3.99295775 C33.2306748,6.06338028 31.5398773,7.62676056 29.4805726,7.62676056 C27.4212679,7.62676056 25.7304703,6.06338028 25.7304703,3.99295775 C25.7304703,2.00704225 27.4429448,0.35915493 29.4805726,0.35915493 C31.5182004,0.38028169 33.2306748,2.00704225 33.2306748,3.99295775 Z M32.3419223,3.99295775 C32.3419223,2.47183099 31.1713701,1.18309859 29.5022495,1.18309859 C27.8114519,1.18309859 26.6625767,2.47183099 26.6625767,3.99295775 C26.6625767,5.59859155 27.9631902,6.8028169 29.5022495,6.8028169 C31.0413088,6.8028169 32.3419223,5.59859155 32.3419223,3.99295775 Z" id="Shape"></path>
                <polygon id="Shape" points="34.0977505 0.169014085 39.4736196 5.66197183 39.4736196 0.528169014 40.3623722 0.528169014 40.3623722 7.77464789 34.9865031 2.28169014 34.9865031 7.47887324 34.0977505 7.47887324"></polygon>
                <path d="M48.2527607,3.97183099 L48.2527607,4.24647887 C48.2527607,6.16901408 46.8654397,7.62676056 44.8711656,7.62676056 C42.8768916,7.62676056 41.2511247,5.93661972 41.2511247,4.01408451 C41.2511247,2.00704225 42.9202454,0.35915493 44.9578732,0.35915493 C46.0850716,0.35915493 47.1689162,0.845070423 47.8625767,1.71126761 L47.2339468,2.3028169 C46.7137014,1.62676056 45.8683027,1.16197183 45.001227,1.16197183 C43.397137,1.16197183 42.1615542,2.42957746 42.1615542,3.97183099 C42.1615542,5.42957746 43.397137,6.8028169 44.9361963,6.8028169 C46.0633947,6.8028169 47.2556237,5.87323944 47.2989775,4.73239437 L45.4347648,4.73239437 L45.4347648,3.99295775 L48.2527607,3.99295775 L48.2527607,3.97183099 L48.2527607,3.97183099 Z" id="Shape"></path>
                <polygon id="Shape" points="55.991411 0.528169014 57.1619632 0.528169014 53.9537832 3.65492958 57.2269939 7.5 56.0130879 7.5 53.3251534 4.24647887 52.9566462 4.58450704 52.9566462 7.5 52.0678937 7.5 52.0678937 0.528169014 52.9566462 0.528169014 52.9566462 3.54929577"></polygon>
                <path d="M64.8572597,3.99295775 C64.8572597,6.06338028 63.1664622,7.62676056 61.1071575,7.62676056 C59.0478528,7.62676056 57.3570552,6.06338028 57.3570552,3.99295775 C57.3570552,2.00704225 59.0695297,0.35915493 61.1071575,0.35915493 C63.1447853,0.38028169 64.8572597,2.00704225 64.8572597,3.99295775 Z M63.9468303,3.99295775 C63.9468303,2.47183099 62.7762781,1.18309859 61.1071575,1.18309859 C59.4163599,1.18309859 58.2674847,2.47183099 58.2674847,3.99295775 C58.2674847,5.59859155 59.5680982,6.8028169 61.1071575,6.8028169 C62.6462168,6.82394366 63.9468303,5.59859155 63.9468303,3.99295775 Z" id="Shape"></path>
                <polygon id="Shape" points="65.7243354 0.169014085 71.1002045 5.66197183 71.1002045 0.528169014 71.9889571 0.528169014 71.9889571 7.77464789 66.6130879 2.28169014 66.6130879 7.47887324 65.7243354 7.47887324"></polygon>
                <path d="M79.8793456,3.97183099 L79.8793456,4.24647887 C79.8793456,6.16901408 78.4920245,7.62676056 76.4977505,7.62676056 C74.5034765,7.62676056 72.8777096,5.93661972 72.8777096,4.01408451 C72.8777096,2.00704225 74.5468303,0.35915493 76.5844581,0.35915493 C77.7116564,0.35915493 78.795501,0.845070423 79.4891616,1.71126761 L78.8605317,2.3028169 C78.3402863,1.62676056 77.4948875,1.16197183 76.6278119,1.16197183 C75.0237219,1.16197183 73.7881391,2.42957746 73.7881391,3.97183099 C73.7881391,5.42957746 75.0237219,6.8028169 76.5627812,6.8028169 C77.6899796,6.8028169 78.8822086,5.87323944 78.9255624,4.73239437 L77.0613497,4.73239437 L77.0613497,3.99295775 L79.8793456,3.99295775 L79.8793456,3.97183099 L79.8793456,3.97183099 Z" id="Shape"></path>
                <path d="M1.71247444,11.5985915 L1.71247444,15.6971831 C1.71247444,16.8380282 2.0809816,17.8732394 3.44662577,17.8732394 C4.81226994,17.8732394 5.1807771,16.8169014 5.1807771,15.6971831 L5.1807771,11.5985915 L6.06952965,11.5985915 L6.06952965,16.0140845 C6.06952965,17.5352113 5.07239264,18.7183099 3.44662577,18.7183099 C1.8208589,18.7183099 0.823721881,17.5352113 0.823721881,16.0140845 L0.823721881,11.5985915 L1.71247444,11.5985915 Z" id="Shape"></path>
                <polygon id="Shape" points="7.28343558 11.2816901 12.6593047 16.7746479 12.6593047 11.5985915 13.5480573 11.5985915 13.5480573 18.8450704 8.17218814 13.3521127 8.17218814 18.5704225 7.28343558 18.5704225"></polygon>
                <polygon id="Shape" points="15.7807771 18.5915493 14.8920245 18.5915493 14.8920245 11.5985915 15.7807771 11.5985915"></polygon>
                <polygon id="Shape" points="19.5742331 16.7957746 21.6985685 11.6408451 22.6957055 11.6408451 19.59591 18.9929577 16.4744376 11.6197183 17.4715746 11.6197183"></polygon>
                <polygon id="Shape" points="23.3893661 11.5985915 27.2261759 11.5985915 27.2261759 12.3802817 24.2564417 12.3802817 24.2564417 14.3450704 27.1177914 14.3450704 27.1177914 15.1267606 24.2564417 15.1267606 24.2564417 17.7676056 27.2261759 17.7676056 27.2261759 18.5492958 23.3893661 18.5492958"></polygon>
                <path d="M32.8838446,18.5915493 L31.8,18.5915493 L29.6973415,15.6338028 L29.3071575,15.6338028 L29.3071575,18.5915493 L28.4184049,18.5915493 L28.4184049,11.5985915 L29.5022495,11.5985915 C30.1308793,11.5985915 30.8245399,11.5985915 31.3881391,11.9366197 C31.995092,12.2957746 32.3202454,12.9507042 32.3202454,13.6056338 C32.3202454,14.6197183 31.6482618,15.443662 30.5860941,15.5492958 L32.8838446,18.5915493 Z M29.3071575,14.9366197 L29.5889571,14.9366197 C30.4993865,14.9366197 31.4965235,14.7676056 31.4965235,13.6690141 C31.4965235,12.5704225 30.4343558,12.4225352 29.5456033,12.4225352 L29.3071575,12.4225352 L29.3071575,14.9366197 L29.3071575,14.9366197 Z" id="Shape"></path>
                <path d="M36.8507157,12.9295775 C36.590593,12.4859155 36.2437628,12.2746479 35.7018405,12.2746479 C35.1382413,12.2746479 34.5096115,12.6549296 34.5096115,13.2676056 C34.5096115,13.8169014 35.0732106,14.0915493 35.5067485,14.2816901 L36.0269939,14.471831 C37.0458078,14.8732394 37.804499,15.4014085 37.804499,16.5633803 C37.804499,17.8309859 36.7856851,18.7183099 35.5067485,18.7183099 C34.3361963,18.7183099 33.4474438,17.8943662 33.2957055,16.7746479 L34.1844581,16.6056338 C34.1844581,17.3661972 34.8130879,17.915493 35.5717791,17.915493 C36.3304703,17.915493 36.8940695,17.2816901 36.8940695,16.5633803 C36.8940695,15.8239437 36.2654397,15.4859155 35.6584867,15.2323944 L35.1599182,15.0422535 C34.3578732,14.6830986 33.6208589,14.2605634 33.6208589,13.2676056 C33.6208589,12.1267606 34.6613497,11.4507042 35.7235174,11.4507042 C36.5255624,11.4507042 37.1758691,11.8309859 37.5660532,12.5070423 L36.8507157,12.9295775 Z" id="Shape"></path>
                <polygon id="Shape" points="39.7337423 18.5915493 38.8449898 18.5915493 38.8449898 11.5985915 39.7337423 11.5985915"></polygon>
                <polygon id="Shape" points="43.0936605 18.5915493 42.204908 18.5915493 42.204908 12.4225352 40.4924335 12.4225352 40.4924335 11.6408451 44.7844581 11.6408451 44.7844581 12.4225352 43.0719836 12.4225352 43.0719836 18.6126761"></polygon>
                <polygon id="Shape" points="44.8494888 11.5985915 45.8899796 11.5985915 47.6458078 14.5774648 49.401636 11.5985915 50.4421268 11.5985915 48.1010225 15.528169 48.1010225 18.5704225 47.2122699 18.5704225 47.2122699 15.5704225"></polygon>
                <path d="M60.9554192,15.1056338 C60.9554192,17.1760563 59.2646217,18.7394366 57.205317,18.7394366 C55.1460123,18.7394366 53.4552147,17.1760563 53.4552147,15.1056338 C53.4552147,13.1197183 55.1676892,11.471831 57.205317,11.471831 C59.2429448,11.471831 60.9554192,13.1197183 60.9554192,15.1056338 Z M60.0449898,15.1056338 C60.0449898,13.584507 58.8744376,12.2957746 57.205317,12.2957746 C55.5361963,12.2957746 54.3656442,13.584507 54.3656442,15.1056338 C54.3656442,16.7112676 55.6662577,17.915493 57.205317,17.915493 C58.7443763,17.915493 60.0449898,16.6901408 60.0449898,15.1056338 Z" id="Shape"></path>
                <polygon id="Shape" points="62.797955 12.4225352 62.797955 14.3873239 65.2907975 14.3873239 65.2907975 15.1690141 62.797955 15.1690141 62.797955 18.5915493 61.9092025 18.5915493 61.9092025 11.5985915 65.3558282 11.5985915 65.3558282 12.3802817 62.797955 12.3802817 62.797955 12.4225352"></polygon>
                <path d="M72.5308793,12.9295775 C72.2707566,12.4859155 71.9239264,12.2746479 71.3820041,12.2746479 C70.8184049,12.2746479 70.1897751,12.6549296 70.1897751,13.2676056 C70.1897751,13.8169014 70.7533742,14.0915493 71.1869121,14.2816901 L71.7071575,14.471831 C72.7259714,14.8732394 73.4846626,15.4014085 73.4846626,16.5633803 C73.4846626,17.8309859 72.4658487,18.7183099 71.1869121,18.7183099 C70.0163599,18.7183099 69.1276074,17.8943662 68.9758691,16.7746479 L69.8646217,16.6056338 C69.8646217,17.3661972 70.4715746,17.915493 71.2519427,17.915493 C72.0106339,17.915493 72.5742331,17.2816901 72.5742331,16.5633803 C72.5742331,15.8239437 71.9456033,15.4859155 71.3386503,15.2323944 L70.8400818,15.0422535 C70.0380368,14.6830986 69.3010225,14.2605634 69.3010225,13.2676056 C69.3010225,12.1267606 70.3415133,11.4507042 71.403681,11.4507042 C72.205726,11.4507042 72.8560327,11.8309859 73.2462168,12.5070423 L72.5308793,12.9295775 Z" id="Shape"></path>
                <path d="M79.7492843,12.9295775 C79.2290389,12.4859155 78.5353783,12.2535211 77.8633947,12.2535211 C76.2593047,12.2535211 75.0453988,13.5633803 75.0453988,15.084507 C75.0453988,16.6056338 76.2593047,17.8943662 77.8417178,17.8943662 C78.5353783,17.8943662 79.207362,17.6408451 79.7492843,17.1760563 L79.7492843,18.2112676 C79.1856851,18.5070423 78.4920245,18.6971831 77.8633947,18.6971831 C75.8257669,18.6971831 74.1349693,17.1338028 74.1349693,15.084507 C74.1349693,13.0352113 75.8474438,11.4084507 77.9501022,11.4084507 C78.5787321,11.4084507 79.207362,11.556338 79.7492843,11.8943662 L79.7492843,12.9295775 L79.7492843,12.9295775 Z" id="Shape"></path>
                <polygon id="Shape" points="81.7652352 18.5915493 80.8548057 18.5915493 80.8548057 11.5985915 81.7435583 11.5985915 81.7435583 18.5915493"></polygon>
                <polygon id="Shape" points="83.19591 11.5985915 87.0327198 11.5985915 87.0327198 12.3802817 84.0629857 12.3802817 84.0629857 14.3450704 86.9243354 14.3450704 86.9243354 15.1267606 84.0629857 15.1267606 84.0629857 17.7676056 87.0327198 17.7676056 87.0327198 18.5492958 83.19591 18.5492958"></polygon>
                <polygon id="Shape" points="88.1599182 11.2816901 93.5357873 16.7746479 93.5357873 11.5985915 94.4245399 11.5985915 94.4245399 18.8450704 89.0486708 13.3521127 89.0486708 18.5704225 88.1599182 18.5704225"></polygon>
                <path d="M100.992638,12.9295775 C100.472393,12.4859155 99.7787321,12.2535211 99.1067485,12.2535211 C97.5026585,12.2535211 96.2887526,13.5633803 96.2887526,15.084507 C96.2887526,16.6056338 97.5026585,17.8943662 99.0850716,17.8943662 C99.7787321,17.8943662 100.450716,17.6408451 100.992638,17.1760563 L100.992638,18.2112676 C100.429039,18.5070423 99.7353783,18.6971831 99.1067485,18.6971831 C97.0691207,18.6971831 95.3783231,17.1338028 95.3783231,15.084507 C95.3783231,13.0352113 97.0907975,11.4084507 99.193456,11.4084507 C99.8220859,11.4084507 100.450716,11.556338 100.992638,11.8943662 L100.992638,12.9295775 L100.992638,12.9295775 Z" id="Shape"></path>
                <polygon id="Shape" points="102.141513 11.5985915 106 11.5985915 106 12.3802817 103.030266 12.3802817 103.030266 14.3450704 105.891616 14.3450704 105.891616 15.1267606 103.030266 15.1267606 103.030266 17.7676056 106 17.7676056 106 18.5492958 102.16319 18.5492958"></polygon>
                <path d="M1.95092025,27.9295775 L1.14887526,29.6830986 L0.195092025,29.6830986 L3.59836401,22.415493 L7.00163599,29.6830986 L6.04785276,29.6830986 L5.24580777,27.9295775 L1.95092025,27.9295775 Z M3.59836401,24.3169014 L2.3194274,27.1267606 L4.87730061,27.1267606 L3.59836401,24.3169014 Z" id="Shape"></path>
                <polygon id="Shape" points="7.63026585 22.3732394 13.006135 27.8661972 13.006135 22.7112676 13.8948875 22.7112676 13.8948875 29.9577465 8.5190184 24.4647887 8.5190184 29.6619718 7.63026585 29.6619718"></polygon>
                <path d="M15.1521472,22.7112676 L16.6261759,22.7112676 C18.8155419,22.7112676 20.6364008,23.8521127 20.6364008,26.1549296 C20.6364008,28.5422535 18.8372188,29.6830986 16.604499,29.6830986 L15.1521472,29.6830986 L15.1521472,22.7112676 L15.1521472,22.7112676 Z M16.0625767,28.9014085 L16.3660532,28.9014085 C18.1869121,28.9014085 19.7693252,28.2464789 19.7693252,26.2183099 C19.7693252,24.1901408 18.208589,23.5352113 16.3660532,23.5352113 L16.0625767,23.5352113 L16.0625767,28.9014085 Z" id="Shape"></path>
                <polygon id="Shape" points="26.4241309 29.6830986 25.5353783 29.6830986 25.5353783 23.4929577 23.8229039 23.4929577 23.8229039 22.7112676 28.1149284 22.7112676 28.1149284 23.4929577 26.402454 23.4929577"></polygon>
                <polygon id="Shape" points="28.8952965 22.7112676 32.7321063 22.7112676 32.7321063 23.4929577 29.7623722 23.4929577 29.7623722 25.4366197 32.6453988 25.4366197 32.6453988 26.2183099 29.7840491 26.2183099 29.7840491 28.8591549 32.7537832 28.8591549 32.7537832 29.6408451 28.9169734 29.6408451 28.9169734 22.6901408 28.8952965 22.6901408 28.8952965 22.7112676"></polygon>
                <path d="M39.1484663,24.0422535 C38.6282209,23.5985915 37.9345603,23.3661972 37.2625767,23.3661972 C35.6584867,23.3661972 34.4445808,24.6760563 34.4445808,26.1971831 C34.4445808,27.7183099 35.6584867,29.0070423 37.2408998,29.0070423 C37.9345603,29.0070423 38.606544,28.7535211 39.1484663,28.2887324 L39.1484663,29.3239437 C38.5848671,29.6197183 37.8912065,29.8098592 37.2625767,29.8098592 C35.2249489,29.8098592 33.5341513,28.2464789 33.5341513,26.1971831 C33.5341513,24.1478873 35.2466258,22.5211268 37.3492843,22.5211268 C37.9779141,22.5211268 38.606544,22.6690141 39.1484663,23.0070423 L39.1484663,24.0422535 L39.1484663,24.0422535 Z" id="Shape"></path>
                <path d="M44.5243354,25.5211268 L44.5243354,22.7112676 L45.4130879,22.7112676 L45.4130879,29.6830986 L44.5243354,29.6830986 L44.5243354,26.3450704 L41.1210634,26.3450704 L41.1210634,29.6830986 L40.2323108,29.6830986 L40.2323108,22.7112676 L41.1210634,22.7112676 L41.1210634,25.5211268 C41.1210634,25.5211268 44.5243354,25.5211268 44.5243354,25.5211268 Z" id="Shape"></path>
                <polygon id="Shape" points="46.7353783 22.3732394 52.1112474 27.8661972 52.1112474 22.7112676 53 22.7112676 53 29.9577465 47.6241309 24.4647887 47.6241309 29.6619718 46.7353783 29.6619718"></polygon>
                <path d="M61.3456033,26.1971831 C61.3456033,28.2676056 59.6548057,29.8309859 57.595501,29.8309859 C55.5361963,29.8309859 53.8453988,28.2676056 53.8453988,26.1971831 C53.8453988,24.2112676 55.5578732,22.5633803 57.595501,22.5633803 C59.6548057,22.5633803 61.3456033,24.1901408 61.3456033,26.1971831 Z M60.4568507,26.1971831 C60.4568507,24.6760563 59.2646217,23.3873239 57.6171779,23.3873239 C55.9263804,23.3873239 54.7775051,24.6760563 54.7775051,26.1971831 C54.7775051,27.8028169 56.0781186,29.0070423 57.6171779,29.0070423 C59.1562372,29.028169 60.4568507,27.8028169 60.4568507,26.1971831 Z" id="Shape"></path>
                <polygon id="Shape" points="63.209816 28.9014085 65.3775051 28.9014085 65.3775051 29.6830986 62.2993865 29.6830986 62.2993865 22.7112676 63.1881391 22.7112676 63.1881391 28.9014085"></polygon>
                <path d="M73.0511247,26.1971831 C73.0511247,28.2676056 71.3603272,29.8309859 69.3010225,29.8309859 C67.2417178,29.8309859 65.5509202,28.2676056 65.5509202,26.1971831 C65.5509202,24.2112676 67.2633947,22.5633803 69.3010225,22.5633803 C71.3603272,22.5633803 73.0511247,24.1901408 73.0511247,26.1971831 Z M72.1623722,26.1971831 C72.1623722,24.6760563 70.99182,23.3873239 69.3226994,23.3873239 C67.6319018,23.3873239 66.4830266,24.6760563 66.4830266,26.1971831 C66.4830266,27.8028169 67.7836401,29.0070423 69.3226994,29.0070423 C70.8617587,29.0070423 72.1623722,27.8028169 72.1623722,26.1971831 Z" id="Shape"></path>
                <path d="M80.5513292,26.1549296 L80.5513292,26.4295775 C80.5513292,28.3521127 79.1640082,29.8098592 77.1697342,29.8098592 C75.1754601,29.8098592 73.5496933,28.1197183 73.5496933,26.1971831 C73.5496933,24.1901408 75.2188139,22.5422535 77.2564417,22.5422535 C78.3836401,22.5422535 79.4674847,23.028169 80.1611452,23.8943662 L79.5325153,24.4859155 C79.0122699,23.8098592 78.1668712,23.3450704 77.2997955,23.3450704 C75.6957055,23.3450704 74.4601227,24.6126761 74.4601227,26.1549296 C74.4601227,27.6126761 75.6957055,28.9859155 77.2347648,28.9859155 C78.3619632,28.9859155 79.5541922,28.056338 79.597546,26.915493 L77.7333333,26.915493 L77.7333333,26.1760563 L80.5513292,26.1549296 L80.5513292,26.1549296 L80.5513292,26.1549296 Z" id="Shape"></path>
                <polygon id="Shape" points="80.7680982 22.7112676 81.808589 22.7112676 83.5644172 25.6901408 85.3202454 22.7112676 86.3607362 22.7112676 84.0196319 26.6408451 84.0196319 29.6830986 83.1308793 29.6830986 83.1308793 26.6408451"></polygon>
            </g>
            <g id="Group">
                <path d="M15.5698925,30.8503448 L11.9354839,24.8427586 C11.9354839,24.8427586 11.827957,24.7144828 11.827957,24.457931 L11.827957,24.3296552 L11.827957,24.0303448 L11.827957,13.3193103 L10.4516129,13.3193103 L10.4516129,24.4793103 L10.4516129,24.8213793 C10.5591398,24.9282759 12.8602151,28.797931 12.8602151,28.797931 L7.1827957,28.797931 C7.1827957,28.797931 9.48387097,24.9282759 9.59139785,24.8213793 L9.59139785,24.4793103 L9.59139785,13.3193103 L8.21505376,13.3193103 L8.21505376,24.0517241 L8.21505376,24.3510345 L8.21505376,24.4793103 C8.21505376,24.6931034 8.10752688,24.8641379 8.10752688,24.8641379 L4.4516129,30.8503448 L15.5698925,30.8503448 L15.5698925,30.8503448 Z" id="Shape" fill="#996600"></path>
                <g transform="translate(5.376344, 0.000000)" id="Shape" fill="#996600">
                    <path d="M9.05376344,5.51586207 C9.05376344,5.51586207 9.74193548,2.71517241 7.29032258,0.855172414 C7.29032258,0.855172414 6.30107527,0 4.47311828,0 C2.79569892,0 1.84946237,0.855172414 1.84946237,0.855172414 C-0.387096774,2.39448276 0.172043011,5.51586207 0.172043011,5.51586207 L9.05376344,5.51586207 Z"></path>
                    <path d="M0.451612903,6.32827586 L8.79569892,6.32827586 C8.86021505,6.1656072 8.90322581,6.00293853 8.96774194,5.7937931 L0.301075269,5.7937931 C0.344086022,5.95646177 0.387096774,6.1656072 0.451612903,6.32827586 Z"></path>
                    <path d="M8.68817204,6.56344828 L0.580645161,6.56344828 C0.666666667,6.74935532 0.752688172,6.93526237 0.860215054,7.09793103 L8.38709677,7.09793103 C8.51612903,6.93526237 8.60215054,6.74935532 8.68817204,6.56344828 Z"></path>
                    <path d="M1.41935484,7.8462069 L7.84946237,7.8462069 C7.95698925,7.67742287 8.06451613,7.53676951 8.19354839,7.31172414 L1.07526882,7.31172414 C1.1827957,7.53676951 1.29032258,7.70555354 1.41935484,7.8462069 Z"></path>
                    <path d="M2.10752688,8.57310345 L7.16129032,8.57310345 C7.29032258,8.40864721 7.41935484,8.24419098 7.5483871,8.03862069 L1.72043011,8.03862069 C1.84946237,8.20307692 1.97849462,8.40864721 2.10752688,8.57310345 Z"></path>
                    <path d="M2.8172043,8.70137931 C3.37634409,9.0108167 4,9.23586207 4.64516129,9.23586207 C5.29032258,9.23586207 5.91397849,9.06707804 6.47311828,8.70137931 L2.8172043,8.70137931 Z"></path>
                </g>
                <path d="M18.6666667,9.32137931 L11.827957,9.32137931 C11.827957,9.32137931 11.2043011,9.32137931 10.688172,9.68482759 C10.2795699,9.94137931 10.0215054,10.5613793 10,10.5827586 L10,10.5827586 C9.97849462,10.5613793 9.72043011,9.94137931 9.31182796,9.68482759 C8.79569892,9.32137931 8.17204301,9.32137931 8.17204301,9.32137931 L1.35483871,9.32137931 L0,11.4806897 L6.25806452,11.4806897 C6.25806452,11.4806897 6.43010753,11.4806897 6.53763441,11.502069 C6.70967742,11.5234483 7.05376344,11.6303448 7.37634409,11.8868966 C7.84946237,12.2289655 7.97849462,12.4 8.08602151,12.5068966 C8.15053763,12.5710345 8.27956989,12.742069 8.27956989,12.742069 L9.80645161,12.742069 L9.97849462,12.742069 L9.97849462,12.742069 L10.5376344,12.742069 L11.7204301,12.742069 C11.7204301,12.742069 11.8709677,12.5496552 11.9139785,12.5068966 C12.0215054,12.4 12.1505376,12.2289655 12.6236559,11.8868966 C12.9677419,11.6517241 13.2903226,11.5448276 13.4623656,11.502069 C13.5698925,11.4806897 13.7419355,11.4806897 13.7419355,11.4806897 L20,11.4806897 L18.6666667,9.32137931 Z" id="Shape" fill="#003366"></path>
                <g transform="translate(0.645161, 11.972414)" id="Shape" fill="#003366">
                    <g>
                        <path d="M0.0215053763,0.171034483 L0.0215053763,10.3689655 C0.0215053763,10.3689655 0.0215053763,10.4758621 0.0215053763,10.4972414 C0.0215053763,10.6041379 0.0215053763,10.7110345 0.0430107527,10.7965517 C0.150537634,11.8868966 0.494623656,12.6993103 1.13978495,13.7682759 C2.15053763,15.4358621 3.95698925,16.5903448 3.95698925,16.5903448 L4.8172043,15.2434483 C4.8172043,15.2434483 3.65591398,14.6234483 2.7311828,13.2124138 C2.55913978,12.9344828 2.34408602,12.6565517 2.21505376,12.4 C2.10752688,12.1648276 2.02150538,11.9510345 1.93548387,11.7372414 C1.89247312,11.5875862 1.84946237,11.4593103 1.80645161,11.3096552 C1.76344086,11.1172414 1.74193548,10.9675862 1.72043011,10.7965517 C1.72043011,10.7324138 1.69892473,10.4972414 1.69892473,10.4972414 L1.69892473,10.4544828 L1.69892473,0.171034483 L0.0215053763,0.171034483 Z"></path>
                        <path d="M2.62365591,0.171034483 L2.62365591,10.4544828 C2.62365591,10.4544828 2.62365591,10.4972414 2.62365591,10.54 C2.62365591,10.5827586 2.62365591,10.6682759 2.64516129,10.7110345 C2.64516129,10.7537931 2.66666667,10.7965517 2.66666667,10.817931 C2.68817204,10.9675862 2.7311828,11.1172414 2.79569892,11.3310345 C2.90322581,11.6944828 3.13978495,12.1006897 3.41935484,12.5710345 C4.17204301,13.8110345 5.29032258,14.3668966 5.29032258,14.3668966 L6.12903226,13.0413793 C6.12903226,13.0413793 5.84946237,12.8917241 5.50537634,12.5496552 C5.29032258,12.3358621 5.01075269,12.0365517 4.77419355,11.7158621 C4.55913978,11.3524138 4.40860215,11.0103448 4.32258065,10.7324138 C4.25806452,10.5186207 4.23655914,10.3262069 4.23655914,10.2193103 C4.23655914,10.1337931 4.23655914,10.0696552 4.23655914,10.0696552 L4.23655914,0.171034483 L2.62365591,0.171034483 Z"></path>
                    </g>
                    <g transform="translate(12.473118, 0.000000)">
                        <path d="M6.23655914,0.171034483 L6.23655914,10.3689655 C6.23655914,10.3689655 6.23655914,10.4758621 6.23655914,10.4972414 C6.23655914,10.6041379 6.23655914,10.7110345 6.21505376,10.7965517 C6.10752688,11.8868966 5.76344086,12.6993103 5.11827957,13.7682759 C4.10752688,15.4358621 2.30107527,16.5903448 2.30107527,16.5903448 L1.44086022,15.2434483 C1.44086022,15.2434483 2.60215054,14.6234483 3.52688172,13.2124138 C3.69892473,12.9344828 3.91397849,12.6565517 4.04301075,12.4 C4.15053763,12.1648276 4.23655914,11.9510345 4.32258065,11.7372414 C4.3655914,11.5875862 4.40860215,11.4593103 4.4516129,11.3096552 C4.49462366,11.1172414 4.51612903,10.9675862 4.53763441,10.7965517 C4.53763441,10.7324138 4.55913978,10.4972414 4.55913978,10.4972414 L4.55913978,10.4544828 L4.55913978,0.171034483 L6.23655914,0.171034483 Z"></path>
                        <path d="M3.6344086,0.171034483 L3.6344086,10.4544828 C3.6344086,10.4544828 3.6344086,10.4972414 3.6344086,10.54 C3.6344086,10.5827586 3.6344086,10.6682759 3.61290323,10.7110345 C3.61290323,10.7537931 3.59139785,10.7965517 3.59139785,10.817931 C3.56989247,10.9675862 3.52688172,11.1172414 3.46236559,11.3310345 C3.35483871,11.6944828 3.11827957,12.1006897 2.83870968,12.5710345 C2.08602151,13.8110345 0.967741935,14.3668966 0.967741935,14.3668966 L0.129032258,13.0413793 C0.129032258,13.0413793 0.408602151,12.8917241 0.752688172,12.5496552 C0.967741935,12.3358621 1.24731183,12.0365517 1.48387097,11.7158621 C1.69892473,11.3524138 1.84946237,11.0103448 1.93548387,10.7324138 C2,10.5186207 2.02150538,10.3262069 2.02150538,10.2193103 C2.02150538,10.1337931 2.02150538,10.0696552 2.02150538,10.0696552 L2.02150538,0.171034483 L3.6344086,0.171034483 Z"></path>
                    </g>
                </g>
            </g>
        </g>
    </g>
</svg>