<?xml version="1.0" encoding="UTF-8"?>
<svg width="57px" height="57px" viewBox="0 0 57 57" version="1.1" xmlns="http://www.w3.org/2000/svg" xmlns:xlink="http://www.w3.org/1999/xlink">
    <!-- Generator: Sketch 46.2 (44496) - http://www.bohemiancoding.com/sketch -->
    <title>Slice 2 Copy</title>
    <desc>Created with Sketch.</desc>
    <defs></defs>
    <g id="Page-1" stroke="none" stroke-width="1" fill="none" fill-rule="evenodd">
        <g id="Group-22-Copy-2" transform="translate(4.000000, 2.000000)">
            <ellipse id="Path-Copy-3" fill="#68AE82" opacity="0.819180254" transform="translate(23.500000, 51.500000) scale(-1, -1) translate(-23.500000, -51.500000) " cx="23.5" cy="51.5" rx="23.5" ry="3.5"></ellipse>
            <g id="Group-20-Copy-3" transform="translate(26.000000, 33.000000)" stroke-linecap="square">
                <path d="M0.294117647,11.4420573 L7.35294118,0.309244792" id="Line-Copy-22" stroke="#30861C" stroke-width="3.4"></path>
                <path d="M8,17.6428571 L8,2.61002604" id="Line-Copy-24" stroke="#000000" stroke-width="4"></path>
                <path d="M19.7058824,8.34960938 L7.35294118,0.309244792" id="Line-Copy-26" stroke="#30861C" stroke-width="3.4" stroke-linejoin="round"></path>
                <path d="M5.58823529,13.9160156 L7.35294118,1.54622396" id="Line-Copy-29" stroke="#30861C" stroke-width="3.4"></path>
                <path d="M14.8235294,13.9160156 L8.35294118,3.40169271" id="Line-Copy-30" stroke="#30861C" stroke-width="3.4"></path>
            </g>
            <g id="Group-20-Copy-6" transform="translate(5.000000, 33.000000)" stroke-linecap="square">
                <path d="M0.294117647,11.4420573 L7.35294118,0.309244792" id="Line-Copy-22" stroke="#30861C" stroke-width="3.4"></path>
                <path d="M8,17.6428571 L8,2.61002604" id="Line-Copy-24" stroke="#000000" stroke-width="4"></path>
                <path d="M19.7058824,8.34960938 L7.35294118,0.309244792" id="Line-Copy-26" stroke="#30861C" stroke-width="3.4" stroke-linejoin="round"></path>
                <path d="M5.58823529,13.9160156 L7.35294118,1.54622396" id="Line-Copy-29" stroke="#30861C" stroke-width="3.4"></path>
                <path d="M14.8235294,13.9160156 L8.35294118,3.40169271" id="Line-Copy-30" stroke="#30861C" stroke-width="3.4"></path>
            </g>
            <ellipse id="Oval-4-Copy-12" fill="#68AE82" transform="translate(14.000000, 13.500000) rotate(9.000000) translate(-14.000000, -13.500000) " cx="14" cy="13.5" rx="2" ry="3.5"></ellipse>
            <ellipse id="Oval-4-Copy-47" fill="#68AE82" transform="translate(35.000000, 13.500000) rotate(9.000000) translate(-35.000000, -13.500000) " cx="35" cy="13.5" rx="2" ry="3.5"></ellipse>
            <ellipse id="Oval-4-Copy-42" fill="#68AE82" transform="translate(13.000000, 24.500000) rotate(9.000000) translate(-13.000000, -24.500000) " cx="13" cy="24.5" rx="2" ry="3.5"></ellipse>
            <ellipse id="Oval-4-Copy-48" fill="#68AE82" transform="translate(34.000000, 24.500000) rotate(9.000000) translate(-34.000000, -24.500000) " cx="34" cy="24.5" rx="2" ry="3.5"></ellipse>
            <path d="M4.8,10.2941176 L3,29.8768014" id="Path-24-Copy-13" stroke="#000000" stroke-width="2.2" stroke-linecap="square"></path>
            <path d="M26,0 L23.2857143,29.7090909" id="Path-24-Copy-14" stroke="#000000" stroke-width="2.2" stroke-linecap="square"></path>
            <path d="M47,10 L45,29.8803213" id="Path-24-Copy-15" stroke="#000000" stroke-width="2.2" stroke-linecap="square"></path>
        </g>
    </g>
</svg>